<?xml version="1.0" encoding="UTF-8" standalone="no"?>
<!-- Created with Inkscape (http://www.inkscape.org/) -->

<svg
   xmlns:dc="http://purl.org/dc/elements/1.1/"
   xmlns:cc="http://creativecommons.org/ns#"
   xmlns:rdf="http://www.w3.org/1999/02/22-rdf-syntax-ns#"
   xmlns:svg="http://www.w3.org/2000/svg"
   xmlns="http://www.w3.org/2000/svg"
   xmlns:sodipodi="http://sodipodi.sourceforge.net/DTD/sodipodi-0.dtd"
   xmlns:inkscape="http://www.inkscape.org/namespaces/inkscape"
   id="svg4136"
   version="1.1"
   inkscape:version="0.91 r13725"
   xml:space="preserve"
   width="84.693939"
   height="84.197166"
   viewBox="0 0 84.693941 84.197168"
   sodipodi:docname="logo.svg"><metadata
     id="metadata4142"><rdf:RDF><cc:Work
         rdf:about=""><dc:format>image/svg+xml</dc:format><dc:type
           rdf:resource="http://purl.org/dc/dcmitype/StillImage" /><dc:title /></cc:Work></rdf:RDF></metadata><defs
     id="defs4140"><clipPath
       clipPathUnits="userSpaceOnUse"
       id="clipPath4150"><path
         d="m 0,821.446 840.263,0 L 840.263,0 0,0 0,821.446 Z"
         id="path4152"
         inkscape:connector-curvature="0" /></clipPath></defs><sodipodi:namedview
     pagecolor="#ffffff"
     bordercolor="#666666"
     borderopacity="1"
     objecttolerance="10"
     gridtolerance="10"
     guidetolerance="10"
     inkscape:pageopacity="0"
     inkscape:pageshadow="2"
     inkscape:window-width="1920"
     inkscape:window-height="1017"
     id="namedview4138"
     showgrid="false"
     inkscape:zoom="2.3358869"
     inkscape:cx="-6.3415538"
     inkscape:cy="-48.097283"
     inkscape:window-x="-8"
     inkscape:window-y="-8"
     inkscape:window-maximized="1"
     inkscape:current-layer="g4144"
     fit-margin-top="0"
     fit-margin-left="0"
     fit-margin-right="0"
     fit-margin-bottom="0" /><g
     id="g4144"
     inkscape:groupmode="layer"
     inkscape:label="LOGOTIPO"
     transform="matrix(1.25,0,0,-1.25,-415.83597,674.36722)"><g
       transform="matrix(0.5625,0,0,0.5625,157.13331,224.52638)"
       id="g4377"
       inkscape:export-xdpi="90"
       inkscape:export-ydpi="90"
       style="fill:#ffffff"><g
         transform="matrix(0.45674606,0,0,0.46108951,404.21938,519.87092)"
         id="g4154"
         style="fill:#ffffff"><path
           inkscape:connector-curvature="0"
           id="path4156"
           style="fill:#ffffff;fill-opacity:1;fill-rule:nonzero;stroke:none"
           d="M 0,0 C -3.843,26.875 -18.187,50.331 -38.771,66.107 L -76.15,0 0,0 Z" /></g><g
         transform="matrix(0.45674606,0,0,0.46108951,322.12151,542.30514)"
         id="g4158"
         style="fill:#ffffff"><path
           inkscape:connector-curvature="0"
           id="path4160"
           style="fill:#ffffff;fill-opacity:1;fill-rule:nonzero;stroke:none"
           d="m 0,0 c -13.79,-17.311 -22.022,-39.223 -22.022,-63.079 0,-16.555 3.978,-32.164 11.015,-45.966 L 50.313,0 0,0 Z" /></g><g
         transform="matrix(0.45674606,0,0,0.46108951,353.84641,559.7583)"
         id="g4162"
         style="fill:#ffffff"><path
           inkscape:connector-curvature="0"
           id="path4164"
           style="fill:#ffffff;fill-opacity:1;fill-rule:nonzero;stroke:none"
           d="m 0,0 c -22.325,-2.178 -42.52,-11.582 -58.246,-25.841 l 72.481,0 L 0,0 Z" /></g><g
         transform="matrix(0.45674606,0,0,0.46108951,381.95968,553.46604)"
         id="g4166"
         style="fill:#ffffff"><path
           inkscape:connector-curvature="0"
           id="path4168"
           style="fill:#ffffff;fill-opacity:1;fill-rule:nonzero;stroke:none"
           d="M 0,0 C -14.169,8.387 -30.549,13.432 -48.063,14.045 L -20.407,-36.115 0,0 Z" /></g><g
         transform="matrix(0.45674606,0,0,0.46108951,320.3329,486.55854)"
         id="g4170"
         style="fill:#ffffff"><path
           inkscape:connector-curvature="0"
           id="path4172"
           style="fill:#ffffff;fill-opacity:1;fill-rule:nonzero;stroke:none"
           d="m 0,0 c 18.34,-26.342 48.787,-43.58 83.291,-43.58 11.698,0 22.906,2.005 33.381,5.648 L 47.528,84.504 0,0 Z" /></g><g
         transform="matrix(0.45674606,0,0,0.46108951,378.71075,471.20997)"
         id="g4174"
         style="fill:#ffffff"><path
           inkscape:connector-curvature="0"
           id="path4176"
           style="fill:#ffffff;fill-opacity:1;fill-rule:nonzero;stroke:none"
           d="m 0,0 c 33.693,16.489 56.89,51.088 56.89,91.11 0,0.818 -0.037,1.616 -0.068,2.432 l -109.617,0 L 0,0 Z" /></g></g><g
       id="g4254"
       transform="matrix(0.15108824,0,0,0.16449902,311.84065,537.86712)"
       inkscape:export-xdpi="90"
       inkscape:export-ydpi="90"
       style="fill:#ffffff"><path
         sodipodi:nodetypes="cscccccccccccccc"
         d="m 534.45223,-373.95378 -0.074,0 c -9.464,0 -21.551,2.371 -33.144,6.221 -11.624,3.867 -22.754,9.205 -30.345,14.883 l -70.057,52.249 -3.357,-4.504 -0.52,-0.693 70.04,-52.26 c 8.457,-6.28 20.04,-11.782 32.19,-15.834 l 0.278,0.829 -0.278,-0.829 c 12.135,-4.03 24.739,-6.548 35.267,-6.56 l 51.84935,0 0,5.628 0,0.87 z"
         style="fill:#ffffff;fill-opacity:1;fill-rule:nonzero;stroke:none"
         id="path4256"
         inkscape:connector-curvature="0" /></g><g
       id="g4258"
       transform="matrix(0.19268974,0,0,0.19452214,369.21043,482.76067)"
       inkscape:export-xdpi="90"
       inkscape:export-ydpi="90"
       style="fill:#ffffff"><path
         d="m 0,0 -14.301,-9.804 -23.458,-16.068 23.458,-16.074 14.284,-9.798 c 2.738,-1.884 6.514,-2.887 10.289,-2.875 3.775,-0.012 7.54,0.991 10.268,2.875 l 14.294,9.798 23.457,16.074 L 34.834,-9.804 20.53,0 C 17.802,1.871 14.047,2.873 10.272,2.873 6.497,2.873 2.745,1.871 0,0"
         style="fill:#ffffff;fill-opacity:1;fill-rule:nonzero;stroke:none"
         id="path4260"
         inkscape:connector-curvature="0" /></g><g
       id="g4262"
       transform="matrix(0.19268974,0,0,0.19452214,384.68445,483.57175)"
       inkscape:export-xdpi="90"
       inkscape:export-ydpi="90"
       style="fill:#ffffff"><path
         d="m 0,0 4.513,16.922 2.308,8.636 0.581,2.188 c 0.197,0.735 0.287,1.535 0.287,2.385 0.058,3.529 -1.838,7.598 -4.458,9.482 l -9.108,6.638 -14.136,10.301 -4.522,-16.898 -2.832,-10.618 -0.061,-0.227 c -0.193,-0.735 -0.287,-1.533 -0.287,-2.362 -0.034,-3.572 1.882,-7.661 4.515,-9.525 l 0.693,-0.531 8.345,-6.067 L 0,0 Z"
         style="fill:#ffffff;fill-opacity:1;fill-rule:nonzero;stroke:none"
         id="path4264"
         inkscape:connector-curvature="0" /></g></g></svg>